<svg xmlns="http://www.w3.org/2000/svg" version="1.1" xmlns:xlink="http://www.w3.org/1999/xlink" xmlns:svgjs="http://svgjs.dev/svgjs" viewBox="0 0 800 800"><defs><linearGradient x1="50%" y1="0%" x2="50%" y2="100%" id="oooscillate-grad"><stop stop-color="hsl(105, 69%, 40%)" stop-opacity="1" offset="0%"></stop><stop stop-color="hsl(105, 69%, 60%)" stop-opacity="1" offset="100%"></stop></linearGradient></defs><g stroke-width="2" stroke="url(#oooscillate-grad)" fill="none" stroke-linecap="round"><path d="M 0 500 Q 200 35 400 400 Q 600 765 800 500" opacity="1.00"></path><path d="M 0 475 Q 200 35 400 400 Q 600 765 800 475" opacity="0.95"></path><path d="M 0 450 Q 200 35 400 400 Q 600 765 800 450" opacity="0.90"></path><path d="M 0 425 Q 200 35 400 400 Q 600 765 800 425" opacity="0.85"></path><path d="M 0 400 Q 200 35 400 400 Q 600 765 800 400" opacity="0.80"></path><path d="M 0 375 Q 200 35 400 400 Q 600 765 800 375" opacity="0.75"></path><path d="M 0 350 Q 200 35 400 400 Q 600 765 800 350" opacity="0.70"></path><path d="M 0 325 Q 200 35 400 400 Q 600 765 800 325" opacity="0.65"></path><path d="M 0 300 Q 200 35 400 400 Q 600 765 800 300" opacity="0.60"></path><path d="M 0 275 Q 200 35 400 400 Q 600 765 800 275" opacity="0.55"></path><path d="M 0 250 Q 200 35 400 400 Q 600 765 800 250" opacity="0.50"></path><path d="M 0 225 Q 200 35 400 400 Q 600 765 800 225" opacity="0.45"></path><path d="M 0 200 Q 200 35 400 400 Q 600 765 800 200" opacity="0.40"></path><path d="M 0 175 Q 200 35 400 400 Q 600 765 800 175" opacity="0.35"></path><path d="M 0 150 Q 200 35 400 400 Q 600 765 800 150" opacity="0.30"></path><path d="M 0 125 Q 200 35 400 400 Q 600 765 800 125" opacity="0.25"></path><path d="M 0 100 Q 200 35 400 400 Q 600 765 800 100" opacity="0.20"></path><path d="M 0 75 Q 200 35 400 400 Q 600 765 800 75" opacity="0.15"></path><path d="M 0 50 Q 200 35 400 400 Q 600 765 800 50" opacity="0.10"></path></g></svg>